<svg width="32" height="32" fill="none" xmlns="http://www.w3.org/2000/svg">
  <path d="M6.187 1h13.916l5.99 5.99v23.73a.28.28 0 01-.28.28H6.187a.28.28 0 01-.28-.28V1.28a.28.28 0 01.28-.28z" stroke="#2364AF" stroke-width="2"/>
  <path d="M18.667 8h8l-8-8v8zM27.934 24.8H4.066c-.478 0-.866-.498-.866-1.11v-9.78c0-.613.388-1.11.866-1.11h23.868c.478 0 .866.497.866 1.11v9.78c0 .612-.388 1.11-.866 1.11z" fill="#2364AF"/>
  <path fill-rule="evenodd" clip-rule="evenodd" d="M11.909 16.489c.403.326.604.828.604 1.506s-.205 1.175-.617 1.49c-.41.315-1.042.473-1.892.473H8.977V21.6H8V16h1.988c.878 0 1.518.163 1.921.489zm-.692 2.311c.197-.2.294-.494.294-.881s-.124-.661-.372-.822c-.25-.16-.638-.24-1.168-.24h-.994V19.1h1.135c.54 0 .91-.1 1.105-.3zm6.829-2.067c.558.489.836 1.168.836 2.04 0 .87-.27 1.559-.812 2.066-.54.507-1.37.761-2.484.761h-1.921V16h1.987c1.038 0 1.836.244 2.394.733zm-.15 2.063c0-1.282-.758-1.923-2.277-1.923h-.977v3.838h1.085c.701 0 1.238-.162 1.61-.485.373-.323.56-.8.56-1.43zm3.222-.377v-1.538h2.874L24 16h-3.86v5.6h.978v-2.307h2.567v-.874h-2.567z" fill="#fff"/>
</svg>
