<svg viewBox="0 0 18 18" xmlns="http://www.w3.org/2000/svg">
  <mask id="a" fill="#fff">
    <path fill-rule="evenodd" clip-rule="evenodd" d="M17 3h-6.126a4.002 4.002 0 00-7.748 0H1a1 1 0 000 2h2.126a4.002 4.002 0 007.748 0H17a1 1 0 100-2zM1 13a1 1 0 100 2h6.126a4.002 4.002 0 007.748 0H17a1 1 0 100-2h-2.126a4.002 4.002 0 00-7.748 0H1z"/>
  </mask>
  <path fill-rule="evenodd" clip-rule="evenodd" d="M17 3h-6.126a4.002 4.002 0 00-7.748 0H1a1 1 0 000 2h2.126a4.002 4.002 0 007.748 0H17a1 1 0 100-2zM1 13a1 1 0 100 2h6.126a4.002 4.002 0 007.748 0H17a1 1 0 100-2h-2.126a4.002 4.002 0 00-7.748 0H1z" fill="#2364AF"/>
  <path d="M10.874 3l-1.937.499L9.324 5h1.55V3zM3.126 3v2h1.55l.387-1.501L3.126 3zm0 2l1.937-.499L4.676 3h-1.55v2zm7.748 0V3h-1.55l-.387 1.501L10.874 5zM7.126 15l1.937-.498L8.676 13h-1.55v2zm7.748 0v-2h-1.55l-.387 1.502 1.937.498zm0-2l-1.937.498.387 1.502h1.55v-2zm-7.748 0v2h1.55l.387-1.502L7.126 13zm3.748-8H17V1h-6.126v4zM7 2c.93 0 1.715.635 1.937 1.499l3.874-.998A6.002 6.002 0 007-2v4zM5.063 3.499A2.002 2.002 0 017 2v-4a6.002 6.002 0 00-5.81 4.501l3.873.998zM1 5h2.126V1H1v4zm1-1a1 1 0 01-1 1V1a3 3 0 00-3 3h4zM1 3a1 1 0 011 1h-4a3 3 0 003 3V3zm2.126 0H1v4h2.126V3zM7 6c-.93 0-1.715-.635-1.937-1.499L1.189 5.5A6.002 6.002 0 007 10V6zm1.937-1.499A2.002 2.002 0 017 6v4a6.002 6.002 0 005.81-4.501L8.938 4.5zM17 3h-6.126v4H17V3zm-1 1a1 1 0 011-1v4a3 3 0 003-3h-4zm1 1a1 1 0 01-1-1h4a3 3 0 00-3-3v4zM2 14a1 1 0 01-1 1v-4a3 3 0 00-3 3h4zm-1-1a1 1 0 011 1h-4a3 3 0 003 3v-4zm6.126 0H1v4h6.126v-4zM11 16c-.93 0-1.715-.636-1.937-1.498l-3.874.996A6.002 6.002 0 0011 20v-4zm1.937-1.498A2.002 2.002 0 0111 16v4a6.002 6.002 0 005.81-4.502l-3.873-.996zM17 13h-2.126v4H17v-4zm-1 1a1 1 0 011-1v4a3 3 0 003-3h-4zm1 1a1 1 0 01-1-1h4a3 3 0 00-3-3v4zm-2.126 0H17v-4h-2.126v4zM11 12c.93 0 1.715.636 1.937 1.498l3.874-.996A6.002 6.002 0 0011 8v4zm-1.937 1.498A2.002 2.002 0 0111 12V8a6.002 6.002 0 00-5.81 4.502l3.873.996zM1 15h6.126v-4H1v4z" fill="#fff" mask="url(#a)"/>
</svg>
