<svg width="180" height="76" fill="none" xmlns="http://www.w3.org/2000/svg">
  <path fill-rule="evenodd" clip-rule="evenodd" d="M103.491 69.132c.523.48.779 1.056.779 1.748 0 .67-.256 1.257-.779 1.735-.508.479-1.154.725-1.93.725-.779 0-1.423-.234-1.945-.714-.512-.48-.767-1.065-.767-1.735 0-.736.025-1.364.074-1.865.097-1.022.4-1.894.838-2.406.218-.265.522-.5.9-.703.765-.425 1.627-.65 3.036-.872l.425-.076v.82l-.29.054c-.523.086-.96.172-1.302.245-.666.16-1.348.383-1.701.67-.582.448-.861 1.099-.983 2.236a2.784 2.784 0 011.714-.584c.777 0 1.423.243 1.931.722zm-.739.534a1.74 1.74 0 00-1.191-.469c-.475 0-.877.16-1.205.48-.328.308-.497.712-.497 1.215 0 .457.157.84.486 1.17.329.319.742.48 1.216.48.473 0 .874-.161 1.201-.471.329-.317.499-.722.499-1.212-.001-.479-.171-.884-.509-1.193zM2.733 65.64H.376v7.583h.997v-2.758h1.239c.948 0 1.725-.204 2.334-.606.606-.417.91-1.023.91-1.823 0-.692-.28-1.256-.827-1.715-.546-.458-1.312-.68-2.296-.68zm-1.36 3.994V66.47h1.336c1.274 0 2.126.619 2.126 1.566 0 .968-.838 1.598-2.113 1.598h-1.35zm9.779 3.407v-.874a3.717 3.717 0 01-1.714.404c-.473 0-.873-.147-1.19-.447a1.606 1.606 0 01-.498-1.097h3.827c0-.056.004-.136.008-.2l.004-.099c0-.724-.231-1.287-.68-1.704-.45-.414-.996-.616-1.653-.616-.742 0-1.349.233-1.822.703a2.298 2.298 0 00-.694 1.693c0 .735.257 1.342.767 1.821.51.48 1.154.714 1.92.714.57 0 1.154-.095 1.725-.298zm-.511-2.694H7.786c.157-.692.704-1.17 1.47-1.17.778 0 1.325.392 1.385 1.17zm3.157-.406v3.28h-.971v-4.695h.606l2.066 1.661 2.054-1.66h.595v4.695h-.97V69.93l-1.679 1.375-1.7-1.364zm8.333-1.532c-.765 0-1.41.233-1.932.702-.521.468-.777 1.066-.777 1.79 0 .671.255 1.246.765 1.725.523.48 1.166.714 1.944.714s1.423-.234 1.933-.714c.521-.48.776-1.065.776-1.747 0-.692-.255-1.268-.776-1.748-.51-.48-1.155-.722-1.933-.722zm0 4.14c-.486 0-.886-.158-1.214-.48a1.6 1.6 0 01-.487-1.178c0-.502.172-.907.5-1.215a1.66 1.66 0 011.202-.48c.45 0 .85.16 1.19.48.341.308.511.712.511 1.192 0 .492-.17.894-.498 1.215a1.691 1.691 0 01-1.203.466zm7.24-2.18v-1.843h.972v4.696h-.972v-2.077h-2.31v2.077h-.97v-4.696h.97v1.842h2.31zm4.214 2.853v-3.93h1.387v-.767H31.24v.767h1.374v3.93h.97zm5.248 0v-4.696h.971v2.417c0 .308-.011.564-.036.758h.06c.098-.161.267-.375.499-.63l2.284-2.545h.79v4.696h-.96v-2.545c0-.225.009-.435.018-.643l.005-.113h-.049c-.108.17-.254.373-.461.595L39.5 73.223h-.667zm13.91-4.696h-1.058l-1.263 2.459a6.983 6.983 0 00-.365.81h-.061a6.587 6.587 0 00-.341-.81l-1.288-2.459h-1.056l2.223 4.174-1.567 2.82h1.032l3.744-6.994zm4.31 3.491v.993a2.95 2.95 0 01-1.385.329c-.778 0-1.422-.234-1.93-.714-.512-.48-.768-1.065-.768-1.735 0-.714.256-1.31.778-1.78.522-.469 1.166-.702 1.92-.702.523 0 .983.117 1.372.34v1.002c-.424-.374-.888-.555-1.373-.555-.474 0-.875.161-1.203.48-.326.309-.485.713-.485 1.215a1.642 1.642 0 001.688 1.66c.5 0 .961-.18 1.387-.533zm2.892 1.205v-3.93h1.385v-.767H57.6v.767h1.373v3.93h.972zm5.479-4.355c.448.31.667.713.667 1.234v3.122h-.85l-.086-.618c-.377.489-.935.735-1.665.735-1.262 0-1.895-.503-1.895-1.502 0-.852.826-1.48 2.188-1.48.376 0 .813.064 1.324.193v-.406c0-.298-.145-.533-.425-.703a1.732 1.732 0 00-.96-.265c-.522 0-1.01.105-1.47.328v-.809a4.351 4.351 0 011.493-.287c.67 0 1.228.149 1.679.458zm-.317 2.331a5.687 5.687 0 00-1.311-.18c-.814 0-1.216.266-1.216.798 0 .5.351.756 1.057.756.838 0 1.47-.522 1.47-1.192v-.182zm5.831-2.672v1.842h-2.31v-1.842h-.971v4.696h.972v-2.077h2.309v2.077h.972v-4.696h-.972zm3.024.585c.522-.47 1.165-.702 1.932-.702.777 0 1.42.243 1.93.722.523.48.778 1.056.778 1.748 0 .682-.255 1.268-.778 1.747-.51.48-1.153.714-1.93.714-.778 0-1.422-.234-1.945-.714-.51-.48-.765-1.054-.765-1.725 0-.724.256-1.322.778-1.79zm.716 2.958c.328.322.73.48 1.216.48.474 0 .874-.157 1.202-.466.327-.321.499-.723.499-1.215 0-.48-.172-.884-.511-1.192-.34-.32-.741-.48-1.19-.48-.474 0-.877.16-1.204.48-.327.308-.497.712-.497 1.215 0 .456.156.85.485 1.178zm6.937-3.543h-1.762v4.697h1.956c1.07 0 1.86-.502 1.86-1.386 0-.456-.23-.808-.692-1.053.327-.224.497-.532.497-.907 0-.766-.633-1.35-1.859-1.35zm-.79 1.957v-1.192h.816c.495 0 .86.225.86.597 0 .395-.34.595-.838.595h-.838zm0 1.972v-1.257h.888c.594 0 .971.213.971.607 0 .426-.376.65-.922.65h-.937zm5.308-1.96l.268-.32c.15-.194.28-.338.366-.434l.011-.012 1.069-1.204h1.19l-1.896 2.109c.596.17 1.021.458 1.265.894.253.425.352.713.496 1.3l.099.394h-1.009l-.133-.47c-.146-.499-.34-.862-.596-1.107-.242-.244-.657-.372-1.227-.372h-.084v1.948h-.973v-4.696h.973v1.97h.18zm8.2-.394c0-.52-.219-.924-.668-1.234-.451-.31-1.01-.458-1.677-.458-.474 0-.971.096-1.495.287v.809a3.324 3.324 0 011.471-.328c.353 0 .68.084.96.265.28.17.425.405.425.703v.406c-.51-.129-.948-.193-1.324-.193-1.362 0-2.188.628-2.188 1.48 0 1 .632 1.502 1.894 1.502.73 0 1.288-.246 1.666-.735l.085.618h.85v-3.122zm-2.297.916c.39 0 .827.064 1.312.181v.182c0 .67-.631 1.192-1.47 1.192-.706 0-1.057-.255-1.057-.756 0-.532.402-.799 1.215-.799zm17.273.8c0-.895-.777-1.438-1.845-1.438h-.972v-1.852h-.974v4.696h1.946c1.056 0 1.845-.544 1.845-1.407zm-.996-.011c0 .415-.402.66-.948.66h-.874v-1.32h.874c.572 0 .948.234.948.66zm2.99 1.416v-4.696h-.985v4.696h.985zm3.242-3.93v3.93h-.971v-3.93H112.2v-.767h3.731v.767h-1.386zm4.397-.883c-.765 0-1.41.233-1.933.702-.522.468-.777 1.066-.778 1.79 0 .671.256 1.246.766 1.725.523.48 1.167.714 1.945.714.777 0 1.421-.234 1.932-.714.522-.48.778-1.065.778-1.747 0-.692-.256-1.268-.778-1.748-.511-.48-1.155-.722-1.932-.722zm0 4.14c-.486 0-.886-.158-1.215-.48a1.604 1.604 0 01-.487-1.178c0-.502.171-.907.499-1.215.327-.32.728-.48 1.203-.48.448 0 .849.16 1.19.48.34.308.512.712.512 1.192 0 .492-.172.894-.5 1.215a1.69 1.69 0 01-1.202.466zm3.959-4.023h1.763c1.226 0 1.858.585 1.858 1.351 0 .375-.17.683-.497.907.462.245.692.597.692 1.053 0 .884-.789 1.386-1.86 1.386h-1.956v-4.697zm.973.766v1.191h.838c.498 0 .839-.2.839-.595 0-.372-.365-.597-.862-.597h-.815v.001zm0 1.906v1.257h.936c.546 0 .922-.224.922-.65 0-.394-.376-.607-.971-.607h-.887zm6.571-2.789c-.767 0-1.409.233-1.932.702-.522.468-.777 1.066-.778 1.79 0 .671.256 1.246.766 1.725.523.48 1.167.714 1.944.714.779 0 1.422-.234 1.933-.714.522-.48.777-1.065.777-1.747 0-.692-.255-1.268-.777-1.748-.511-.48-1.154-.722-1.933-.722zm0 4.14c-.486 0-.888-.158-1.216-.48a1.606 1.606 0 01-.484-1.178c0-.502.169-.907.498-1.215a1.66 1.66 0 011.202-.48c.449 0 .851.16 1.19.48.341.308.511.712.511 1.192 0 .492-.17.894-.498 1.215-.327.31-.73.466-1.203.466zm3.959.673v-4.696h.973v2.417c0 .308-.013.564-.038.758h.062c.097-.161.266-.375.497-.63l2.284-2.545h.79v4.696h-.96v-2.545c0-.242.01-.467.02-.689l.003-.067h-.047c-.109.17-.254.373-.461.595l-2.456 2.706h-.667zm4.278-6.902c-.304.843-1.155 1.205-1.981 1.205-.838 0-1.69-.362-1.992-1.205l.668-.202c.17.513.605.766 1.324.766.693 0 1.143-.253 1.324-.766l.657.202zm6.509 6.902v-3.93h1.386v-.767h-3.731v.767h1.375v3.93h.97zm6.1-1.055v.874a5.145 5.145 0 01-1.727.298c-.765 0-1.409-.234-1.92-.714-.509-.48-.764-1.086-.764-1.82 0-.672.231-1.236.692-1.694.473-.47 1.082-.703 1.823-.703.655 0 1.202.202 1.652.616.449.417.681.98.681 1.704l-.004.099a3.633 3.633 0 00-.008.2h-3.827c.024.435.194.799.498 1.097.316.3.716.447 1.19.447.619 0 1.191-.137 1.714-.404zm-3.367-1.82h2.855c-.059-.778-.605-1.17-1.385-1.17-.764 0-1.311.478-1.47 1.17zm6.997 1.512l1.117 1.363h1.167l-2.067-2.459 1.871-2.237h-1.165l-.912 1.15a3.843 3.843 0 00-.328.468h-.072a4.337 4.337 0 00-.317-.48l-.923-1.138h-1.167l1.885 2.237-2.091 2.459h1.18l1.117-1.363c.147-.192.257-.352.329-.47h.059c.086.16.196.32.317.47zm6.474-1.49v-1.843h.973v4.696h-.973v-2.077h-2.307v2.077h-.972v-4.696h.972v1.842h2.307zm2.539-1.843v4.696h.668l2.455-2.706a4.15 4.15 0 00.46-.595h.049c-.012.244-.024.49-.024.756v2.545h.959v-4.696h-.788l-2.284 2.544c-.232.256-.401.47-.499.63h-.062c.024-.193.037-.45.037-.757v-2.417h-.971zm7.289 1.97l.266-.32c.134-.173.251-.306.335-.4l.041-.047 1.07-1.204h1.191l-1.896 2.109c.595.17 1.022.458 1.264.894.256.425.352.713.497 1.3l.098.394h-1.008l-.133-.47c-.145-.499-.34-.862-.595-1.107-.244-.244-.657-.372-1.228-.372h-.086v1.948h-.971v-4.696h.971v1.97h.184zm4.031-1.97v4.696h.668l2.454-2.706c.207-.222.352-.425.462-.595h.049l-.002.03c-.011.235-.023.47-.023.726v2.545h.961v-4.696h-.791l-2.283 2.544c-.232.256-.402.47-.499.63h-.06c.024-.193.037-.45.037-.757v-2.417h-.973z" fill="#2D2D32"/>
  <path fill-rule="evenodd" clip-rule="evenodd" d="M8.303 30.42H.473v28.777h3.31V48.729h4.116c3.148 0 5.73-.768 7.75-2.304 2.018-1.576 3.027-3.878 3.027-6.91 0-2.627-.928-4.77-2.745-6.508-1.815-1.738-4.359-2.587-7.628-2.587zm-4.52 15.156V33.573h4.44c4.238 0 7.063 2.345 7.063 5.942 0 3.678-2.784 6.06-7.022 6.06H3.783zm66.133-11.962H82.75V30.42H66.606v28.777h9.12c2.624 0 4.803-.726 6.539-2.223 1.776-1.495 2.664-3.555 2.664-6.142s-.888-4.649-2.664-6.144c-1.736-1.495-3.915-2.263-6.538-2.263h-5.811v-8.81zm11.583 17.217c0 3.354-2.544 5.255-5.974 5.255h-5.61V45.537h5.61c3.43 0 5.974 1.94 5.974 5.294zm14.242-2.424c3.552 0 6.135 2.06 6.135 5.455 0 3.273-2.624 5.335-6.135 5.335h-6.457V41.374h3.229v7.033h3.228zm-.324 7.92c1.818 0 3.149-.928 3.149-2.506 0-1.616-1.252-2.505-3.149-2.505h-2.905v5.01h2.905v.001zm13.078-14.953v17.823h-3.27V41.374h3.27zm10.769 17.823V44.284h4.603v-2.91h-12.393v2.91h4.561v14.913h3.229zM36.268 54.75v3.313a15.196 15.196 0 01-5.73 1.133c-2.544 0-4.683-.89-6.379-2.708-1.694-1.819-2.542-4.122-2.542-6.911 0-2.546.767-4.688 2.3-6.427 1.575-1.777 3.593-2.667 6.055-2.667 2.18 0 3.996.77 5.489 2.345 1.493 1.575 2.26 3.719 2.26 6.467 0 .064-.006.199-.014.36v.001c-.012.245-.027.551-.027.77H24.967c.08 1.657.646 3.03 1.655 4.163 1.05 1.13 2.381 1.698 3.955 1.698a11.13 11.13 0 005.69-1.537zm-11.18-6.91h9.484c-.202-2.951-2.017-4.447-4.6-4.447-2.544 0-4.36 1.82-4.884 4.446zm19.975 11.356V46.749l5.649 5.173 5.57-5.214v12.489h3.23V41.374h-1.978l-6.821 6.305-6.861-6.305h-2.02v17.823h3.23z" fill="#2364AF"/>
  <path fill-rule="evenodd" clip-rule="evenodd" d="M171.017 20.813l1.406 1.851-.297-2.345-1.223-1.012-2.441.002-1.515-2.128c.047-.041.194-.142.361-.255.27-.184.592-.403.627-.467.199-.37-.294-2.003-1.176-2.67-.323-.245-1.589.132-1.952.243l-.054.067-1.676-2.353.431-2.18-.647-1.45-2.177-.917 1.405 1.853-.926 2.236-2.399.296-.823-2.823-.286 3.317 1.248 1.024 2.086.034 1.155 1.582c-2.427.575-6.858 1.48-6.858 1.48s-4.33-1.183-5.642-2.192c-.693-.533-1.764-.968-2.624-1.262a.257.257 0 00.023-.156c-.017-.143.098-.29.206-.43.097-.124.188-.241.172-.341-.015-.1-.108-.182-.218-.27.686.101 1.345.194 1.391.088.139-.317.137-.549.136-.775-.002-.266-.004-.524.223-.905 0 0 .016-.056.04-.15a35.476 35.476 0 01-.491-.275 1.44 1.44 0 00-.134-.472c.289.079.569.147.757.155a8.01 8.01 0 00.127-.887c.013-.164.186-.192.352-.218.137-.022.268-.043.298-.14.089-.294-.142-.61-.395-.956-.348-.475-.738-1.009-.406-1.625a.957.957 0 00.087-.488h.094c1.182 0 2.141-.432 2.141-.967 0-.534-.959-.967-2.141-.967-.261 0-.511.021-.742.06a3.976 3.976 0 01-.032-.058s.056-1.377-1.093-1.8c-3.589-1.325-5.956-.632-6.989.225-1.349 1.118-1.34 2.777-1.334 3.942.001.14.002.274 0 .398-.006.423.292.527.514.605.123.043.223.078.236.155.332 2.03 1.843 1.953 1.843 1.953s.214.98.748 1.639l-.114.155s-.463-.028-.737.09c-.213.091-.188.282-.157.53.009.072.019.148.024.227.015.255-.018.447-.039.539-.087-.01-.174-.018-.264-.026-.951-.084-1.763.056-2.154.42-.052.048-.092.089-.126.123-.052.052-.089.09-.132.119-.115.078-.269.097-.831.169l-.506.065c-1.483.197-6.045 1.177-6.857 1.513-.692.287-6.922 4.113-8.602 5.252-.289.196 0 .384 0 .384l.148.181c-.437.214-.863.407-.976.407 0 0-.597.217-1.085.639l-1.04-.42-1.707 2.413-.35-.965-.661-.267.162-.4-1.68-.678-.162.4-.763-.308-3.472 8.616 14.261 5.76 3.471-8.616-.364-.148-.349-.142.16-.4-1.679-.678-.161.4-.712-.287-.921.453.443-2.924-.812-.329c.04-.142.06-.267.056-.36-.012-.286.003-.445.012-.542.007-.083.011-.12-.011-.152.172-.1.439-.016.695.064.243.077.475.15.605.059.118-.083 3.086-1.429 5.213-2.393h.002c1.066-.484 1.92-.871 2.098-.955.531-.252 2.071-.449 3.302-.505l.18-.008c1.076-.05 1.303-.06 1.303.232 0 .308-1.371 5.156-2.435 5.913-.16.114-.307.216-.443.312-.77.537-1.21.844-1.852 1.677-.358.465.448 1.778 1.393 3.032-.114 2.298 1.543 3.757 1.848 3.989.016.054.034.11.052.164v.001l-.206.474c-.693 1.587-2.604 5.964-2.834 7.159-.215 1.115-.851 1.682-1.54 2.296-.4.356-.817.728-1.182 1.232-.993 1.374-5.388 7.776-5.388 7.776l.333.182-.488.646s-.374.04-.602.182c-.227.14-.825 1.036-.931 1.21-.043.07-.21.2-.399.346-.28.217-.606.47-.637.616-.053.247 1.147 1.365 1.953 1.706.317.134.472.155.609.173.211.03.379.052 1.028.47 1.073.69 4.932 2.097 5.307 1.75.374-.347.568-.569.545-.618a.211.211 0 01-.02-.072c-.002-.017-.004-.034-.011-.054a3.416 3.416 0 00-.341-.207c-.636-.367-1.944-1.122-2.018-1.451-.045-.2-.077-.404-.106-.585a3.426 3.426 0 00-.101-.505c-.032-.094-.085-.19-.138-.29h-.001c-.065-.122-.133-.247-.169-.377-.053-.191-.057-.69.018-1.032l.59.322s.689-1.476 1.219-2.333l.027-.021h.001l.019-.015-.021-.006c.098-.155.19-.29.27-.387.429-.517 1.99-2.778 3.848-5.577.147.106.298.258.638.82.66 1.094 3.508 4.058 3.997 3.911.489-.147.76-.261.761-.316 0-.032.007-.052.014-.074a.308.308 0 00.013-.052c.002-.012-.104-.179-.265-.43-.507-.798-1.561-2.453-1.483-2.783a8.84 8.84 0 01.286-.86c.095-.258.179-.488.201-.6.034-.183.333-.398.586-.58.079-.057.154-.11.215-.159.046-.038.11-.081.179-.127l.006.004c.059.034.546.313.604.272 2.701-1.911 6.009-3.322 7.47-3.894 2.008-.784 4.734-2.316 4.366-3.506-.435-1.407-2.352-2.436-4.266-3.464-.334-.18-.668-.358-.994-.54-1.586-.882-3.029-1.877-3.517-2.276l.223.03c.121-.49.182-.747.182-.747l-.028-.72c.209-.9 1.011-2.297 1.804-3.679.85-1.482 1.691-2.947 1.78-3.76.189-1.738.482-2.839.482-2.839 1.25.656 7.853.564 8.706.451.853-.112 7.171-.71 7.171-.71s.17-.965.304-2.041l.084-.024.073-.02 2.584 3.54-.251 2.09.652 1.478 2.177.914-1.407-1.851.928-2.236 2.401-.299zm-47.137 2.426l-1.015 3.509-5.439-2.198 1.617-3.265.491.198c-.105.214-.16.454-.127.721.162 1.297 2.171 1.751 2.883 1.821.405.04.826-.45 1.111-.979l.479.193zm20.333 14.663l-6.577 2.93a139.092 139.092 0 002.673-4.302c3.365 1.26 3.84 1.372 3.904 1.372zM127.307 13.79L18.77 14.33l106.71.518 1.827-1.06zm3.084 22.453l-40.876.584 40.406.575c.155-.388.312-.776.47-1.159zm29.995 18.509v3.313a15.201 15.201 0 01-5.731 1.133c-2.543 0-4.682-.89-6.378-2.708-1.694-1.819-2.541-4.122-2.541-6.911 0-2.546.767-4.688 2.299-6.427 1.576-1.778 3.594-2.667 6.055-2.667 2.18 0 3.997.77 5.49 2.345 1.493 1.575 2.259 3.719 2.259 6.467 0 .063-.006.199-.014.36v.004c-.012.244-.026.55-.026.767h-12.714c.081 1.657.646 3.03 1.654 4.163 1.05 1.13 2.382 1.698 3.956 1.698 2.06 0 3.955-.527 5.691-1.537zm-11.18-6.91h9.484c-.203-2.951-2.019-4.447-4.602-4.447-2.541 0-4.357 1.82-4.882 4.446zm22.894 6.184l3.712 5.172h3.876l-6.861-9.335 6.215-8.489h-3.875l-3.026 4.366c-.605.89-.97 1.495-1.091 1.778h-.242c-.363-.688-.686-1.292-1.049-1.819l-3.067-4.325h-3.876l6.257 8.489-6.943 9.334h3.915l3.713-5.17c.485-.73.848-1.335 1.09-1.78h.202c.282.606.646 1.213 1.05 1.78zM18.77 19.965l91.277-.457-.361.897-90.916-.44zm89.006 5.179l-89.005.444 88.653.43.352-.874zM89.515 31.2l19.19-.274 1.407.568-20.597-.294z" fill="#51B2C0"/>
</svg>
