<svg viewBox="0 0 99 99" fill="none" xmlns="http://www.w3.org/2000/svg">
  <g filter="url(#filter0_d)">
    <path d="M47.971 8.986a1.93 1.93 0 013.058 0l1.311 1.704a1.93 1.93 0 002.732.331l1.682-1.34a1.93 1.93 0 012.969.73l.864 1.968a1.93 1.93 0 002.573.975l1.955-.9a1.93 1.93 0 012.707 1.422l.368 2.114a1.93 1.93 0 002.265 1.564l2.112-.407a1.93 1.93 0 012.29 2.029l-.15 2.139a1.93 1.93 0 001.826 2.06l2.146.11a1.93 1.93 0 011.737 2.518l-.656 2.04a1.93 1.93 0 001.28 2.438l2.055.62a1.93 1.93 0 011.085 2.86l-1.126 1.823a1.93 1.93 0 00.66 2.674l1.845 1.092a1.93 1.93 0 01.369 3.037l-1.53 1.502a1.93 1.93 0 000 2.753l1.53 1.502a1.93 1.93 0 01-.37 3.037l-1.845 1.092a1.93 1.93 0 00-.659 2.674l1.126 1.823a1.93 1.93 0 01-1.085 2.86l-2.055.62a1.93 1.93 0 00-1.28 2.438l.656 2.04a1.929 1.929 0 01-1.737 2.517l-2.146.11a1.93 1.93 0 00-1.825 2.061l.148 2.14a1.93 1.93 0 01-2.289 2.028l-2.112-.407a1.93 1.93 0 00-2.265 1.564l-.368 2.114a1.93 1.93 0 01-2.707 1.421l-1.955-.9a1.93 1.93 0 00-2.573.976l-.864 1.967a1.93 1.93 0 01-2.969.732l-1.682-1.341a1.93 1.93 0 00-2.732.331l-1.311 1.704a1.93 1.93 0 01-3.058 0l-1.311-1.704a1.93 1.93 0 00-2.732-.331l-1.682 1.34a1.93 1.93 0 01-2.969-.73l-.864-1.968a1.93 1.93 0 00-2.573-.975l-1.955.9a1.93 1.93 0 01-2.707-1.422l-.368-2.114a1.93 1.93 0 00-2.265-1.564l-2.112.407a1.93 1.93 0 01-2.29-2.029l.15-2.139a1.93 1.93 0 00-1.826-2.06l-2.146-.11a1.93 1.93 0 01-1.737-2.518l.656-2.04a1.93 1.93 0 00-1.28-2.438l-2.055-.62a1.93 1.93 0 01-1.085-2.86l1.126-1.823a1.93 1.93 0 00-.66-2.674l-1.845-1.092a1.93 1.93 0 01-.369-3.037l1.53-1.502a1.93 1.93 0 000-2.753l-1.53-1.502a1.93 1.93 0 01.37-3.037l1.845-1.092a1.93 1.93 0 00.659-2.674l-1.126-1.823a1.93 1.93 0 011.085-2.86l2.055-.62a1.93 1.93 0 001.28-2.438l-.656-2.04a1.93 1.93 0 011.737-2.517l2.146-.11a1.93 1.93 0 001.825-2.061l-.148-2.14a1.93 1.93 0 012.289-2.028l2.112.407a1.93 1.93 0 002.265-1.564l.368-2.114a1.93 1.93 0 012.707-1.421l1.955.9a1.93 1.93 0 002.573-.976l.864-1.967a1.93 1.93 0 012.969-.732l1.682 1.341a1.93 1.93 0 002.732-.331l1.311-1.704z" fill="#F99E15"/>
  </g>
  <defs>
    <filter id="filter0_d" x=".494" y=".233" width="98.011" height="98.464" filterUnits="userSpaceOnUse" color-interpolation-filters="sRGB">
      <feFlood flood-opacity="0" result="BackgroundImageFix"/>
      <feColorMatrix in="SourceAlpha" values="0 0 0 0 0 0 0 0 0 0 0 0 0 0 0 0 0 0 127 0"/>
      <feOffset dy="4"/>
      <feGaussianBlur stdDeviation="6"/>
      <feColorMatrix values="0 0 0 0 0.976471 0 0 0 0 0.615686 0 0 0 0 0.0823529 0 0 0 0.3 0"/>
      <feBlend in2="BackgroundImageFix" result="effect1_dropShadow"/>
      <feBlend in="SourceGraphic" in2="effect1_dropShadow" result="shape"/>
    </filter>
  </defs>
</svg>
