<svg width="22" height="24" fill="none" xmlns="http://www.w3.org/2000/svg">
  <path d="M0 4.826c0-1.433.48-2.592 1.44-3.48C2.4.45 3.658 0 5.214 0c1.579 0 2.848.444 3.808 1.33.96.877 1.44 2.069 1.44 3.576V6.06c0 1.443-.48 2.603-1.44 3.48-.96.876-2.218 1.314-3.774 1.314-1.568 0-2.837-.438-3.808-1.315C.48 8.652 0 7.46 0 5.964V4.826zM3.178 6.06c0 .641.188 1.16.563 1.555.386.385.889.577 1.507.577.618 0 1.109-.197 1.473-.593.364-.395.546-.924.546-1.587V4.826c0-.642-.182-1.16-.546-1.555-.364-.396-.866-.594-1.507-.594-.607 0-1.098.198-1.473.594-.375.384-.563.924-.563 1.619v1.17zm8.343 11.896c0-1.443.486-2.603 1.457-3.479.971-.887 2.23-1.33 3.775-1.33 1.567 0 2.83.438 3.79 1.314.971.866 1.457 2.063 1.457 3.591v1.154c0 1.433-.474 2.592-1.424 3.48-.949.876-2.212 1.314-3.79 1.314-1.59 0-2.864-.444-3.824-1.33-.96-.888-1.44-2.064-1.44-3.528v-1.186zm3.179 1.25c0 .588.198 1.09.596 1.507.397.417.894.626 1.49.626 1.346 0 2.02-.722 2.02-2.165v-1.218c0-.641-.189-1.154-.564-1.54-.375-.395-.872-.592-1.49-.592s-1.114.197-1.49.593c-.375.385-.562.914-.562 1.587v1.202zM6.19 21.932l-2.334-1.219L15.627 2.47l2.334 1.218L6.19 21.932z" fill="#2D2D32"/>
</svg>
