<svg width="20" height="24" fill="none" xmlns="http://www.w3.org/2000/svg">
  <path fill-rule="evenodd" clip-rule="evenodd" d="M18 9c0 1.183-.458 2.606-1.318 4.181-.848 1.553-2.004 3.104-3.202 4.504A46.532 46.532 0 0110 21.313l-.187-.176a46.534 46.534 0 01-3.293-3.452c-1.198-1.4-2.354-2.951-3.202-4.504C2.458 11.606 2 10.183 2 9c0-2.674 1.07-4.327 2.496-5.373C6.006 2.52 8.056 2 10 2c1.663 0 3.739.506 5.341 1.645C16.863 4.726 18 6.392 18 9zm2 0c0 6.627-10 15-10 15S0 15.627 0 9c0-6.627 5.5-9 10-9 4 0 10 2.373 10 9zm-7 0a3 3 0 11-6 0 3 3 0 016 0zm2 0A5 5 0 115 9a5 5 0 0110 0z" fill="#D3E8ED"/>
</svg>
