<svg width="16" height="16" fill="none" xmlns="http://www.w3.org/2000/svg"><path fill-rule="evenodd" clip-rule="evenodd" d="M8 14.333C3.582 14.333 0 8 0 8s3.582-6.333 8-6.333S16 8 16 8s-3.582 6.333-8 6.333zM1.455 8.426A18.48 18.48 0 011.173 8 18.812 18.812 0 013.08 5.508C4.5 3.958 6.243 2.667 8 2.667c1.757 0 3.501 1.29 4.919 2.841A18.815 18.815 0 0114.827 8a18.82 18.82 0 01-1.909 2.492c-1.417 1.55-3.16 2.841-4.918 2.841-1.757 0-3.501-1.29-4.919-2.841a18.816 18.816 0 01-1.626-2.066zM10.333 8a2.333 2.333 0 11-4.666 0 2.333 2.333 0 014.666 0zm1 0a3.333 3.333 0 11-6.666 0 3.333 3.333 0 016.666 0z" fill="#898686"/></svg>
