<svg width="24" height="24" xmlns="http://www.w3.org/2000/svg">
  <path fill-rule="evenodd" clip-rule="evenodd" d="M16.32.96c0-.53.43-.96.96-.96A6.72 6.72 0 0124 6.72a.96.96 0 11-1.92 0 4.8 4.8 0 00-4.8-4.8.96.96 0 01-.96-.96zm1.573 16.445c-.874 1.408-2.39 2.227-3.942 2.344.577.326 1.13.596 1.65.809 1.03.422 1.793.563 2.275.562.214 0 .327-.026.374-.043l1.662-1.658-2.019-2.014zm4.543 3.564l-2.187 2.182c-2.301 2.297-8.4-.23-13.808-5.627C1.032 12.127-1.384 6.041.802 3.745l2.186-2.181c.806-.804 2.187-.804 3.107 0l3.222 3.215c1.151 1.148.69 3.1-.805 3.56-1.036.344-1.726 1.493-1.381 2.526.575 2.412 3.682 5.397 5.984 5.971 1.035.23 2.186-.344 2.531-1.378.46-1.492 2.417-1.952 3.568-.803l3.222 3.215c.805.804.805 2.182 0 3.1zM4.168 9.905c.135-1.61 1.114-3.008 2.394-3.807L4.542 4.08 2.923 5.697a1.341 1.341 0 00-.043.4c.002.496.146 1.266.562 2.293.194.48.437.987.726 1.515zm-1.232-4.24s-.001.005-.006.012a.043.043 0 01.006-.012zm15.327 15.408c.01-.006.015-.009.016-.008l-.016.008zM14.4 4.8a.96.96 0 100 1.92 2.88 2.88 0 012.88 2.88.96.96 0 101.92 0 4.8 4.8 0 00-4.8-4.8z"/>
</svg>
