<svg width="122" height="40" fill="none" xmlns="http://www.w3.org/2000/svg">
  <path d="M5.627 20.328H.321v19.23h2.242v-6.995h2.79c2.134 0 3.885-.514 5.253-1.54 1.368-1.053 2.052-2.591 2.052-4.618 0-1.755-.63-3.187-1.86-4.348-1.231-1.162-2.955-1.729-5.17-1.729zM2.564 30.456v-8.02h3.01c2.871 0 4.786 1.566 4.786 3.97 0 2.457-1.887 4.05-4.76 4.05H2.564zm44.823-7.994h8.699v-2.134H45.144v19.23h6.181c1.779 0 3.256-.485 4.432-1.485 1.204-1 1.806-2.376 1.806-4.105 0-1.728-.602-3.106-1.806-4.106-1.176-.998-2.653-1.512-4.431-1.512h-3.94v-5.888zm7.85 11.506c0 2.241-1.723 3.511-4.048 3.511h-3.803V30.43h3.803c2.325 0 4.049 1.296 4.049 3.538zm9.654-1.62c2.407 0 4.158 1.377 4.158 3.645 0 2.187-1.779 3.565-4.158 3.565h-4.377v-11.91h2.189v4.7h2.188zm-.22 5.293c1.232 0 2.134-.621 2.134-1.676 0-1.08-.848-1.674-2.134-1.674h-1.969v3.349h1.97zm8.864-9.993v11.91h-2.216v-11.91h2.216zm7.3 11.91v-9.965h3.119v-1.945h-8.4v1.945h3.092v9.965h2.188zM24.58 36.587v2.214a10.429 10.429 0 01-3.884.757c-1.724 0-3.174-.594-4.323-1.81-1.148-1.215-1.723-2.754-1.723-4.618 0-1.701.52-3.132 1.56-4.295 1.067-1.187 2.434-1.782 4.103-1.782 1.477 0 2.708.514 3.72 1.567s1.532 2.485 1.532 4.322c0 .042-.004.132-.01.24-.008.164-.018.37-.018.515h-8.616c.054 1.107.437 2.026 1.121 2.782.712.756 1.614 1.135 2.68 1.135 1.396 0 2.682-.352 3.858-1.027zm-7.577-4.618h6.428c-.137-1.972-1.367-2.971-3.118-2.971-1.724 0-2.955 1.216-3.31 2.971zm13.538 7.589V31.24l3.829 3.457 3.775-3.484v8.345h2.189v-11.91h-1.34l-4.623 4.213-4.65-4.213h-1.369v11.91h2.19z" fill="#2364AF"/>
  <path d="M115.911 13.908l.954 1.237-.202-1.567-.829-.676h-1.654l-1.027-1.42c.032-.028.131-.095.244-.171h.001c.183-.123.401-.27.424-.312.135-.248-.199-1.339-.796-1.785-.22-.163-1.077.089-1.324.163l-.037.045-1.135-1.573.292-1.457-.438-.97-1.476-.611.952 1.238-.628 1.494-1.626.198-.557-1.886-.194 2.216.845.684 1.414.023.783 1.057c-1.645.385-4.648.99-4.648.99s-2.934-.791-3.824-1.465c-.469-.356-1.196-.647-1.778-.844a.17.17 0 00.016-.104c-.012-.096.066-.194.139-.287.066-.083.127-.162.117-.228-.01-.067-.074-.122-.148-.181.465.068.911.13.943.06.094-.213.093-.368.092-.519a.984.984 0 01.151-.604l.027-.101a25.592 25.592 0 01-.333-.184.958.958 0 00-.09-.315c.195.053.385.098.512.103.036-.18.07-.39.086-.592.009-.11.127-.128.239-.146.093-.015.182-.029.202-.094.06-.196-.096-.407-.268-.639-.235-.317-.5-.673-.275-1.085a.617.617 0 00.059-.326h.064c.801 0 1.451-.29 1.451-.646 0-.357-.65-.646-1.451-.646-.177 0-.347.014-.503.04l-.022-.04s.038-.92-.74-1.203c-2.433-.885-4.038-.421-4.738.151-.914.747-.908 1.856-.904 2.634 0 .095.001.184 0 .267-.004.282.198.352.349.404.083.029.151.052.16.103.225 1.357 1.249 1.306 1.249 1.306s.145.654.507 1.094l-.078.104s-.313-.019-.5.06c-.143.061-.127.189-.105.355.006.048.012.098.016.152.01.17-.012.298-.027.36a9.6 9.6 0 00-.178-.018c-.645-.056-1.195.037-1.46.28-.036.033-.063.06-.086.083a.645.645 0 01-.089.079c-.078.052-.182.065-.563.113l-.344.044c-1.005.131-4.096.786-4.647 1.01-.47.193-4.691 2.75-5.83 3.51-.197.131 0 .257 0 .257l.1.121c-.296.143-.585.272-.662.272 0 0-.404.145-.735.427l-.704-.28-1.158 1.612-.237-.645-.448-.178.11-.268-1.139-.453-.11.267-.517-.206-2.353 5.758 9.665 3.85 2.353-5.759-.247-.098-.236-.095.109-.267-1.139-.454-.109.268-.483-.192-.624.303.3-1.954-.55-.22a.81.81 0 00.039-.24c-.009-.191.001-.298.007-.363.006-.055.008-.08-.007-.102.117-.067.298-.01.471.044.165.05.322.1.41.039.08-.055 2.093-.955 3.534-1.6.723-.322 1.302-.581 1.422-.638.361-.168 1.404-.3 2.239-.337l.122-.005c.73-.034.883-.04.883.155 0 .206-.93 3.445-1.65 3.951l-.3.208c-.522.36-.82.565-1.256 1.121-.242.311.304 1.188.945 2.026-.078 1.536 1.045 2.51 1.252 2.666.01.036.023.073.035.11-.028.066-.076.174-.14.316v.001c-.47 1.06-1.765 3.985-1.92 4.784-.146.745-.577 1.124-1.044 1.534-.271.238-.554.486-.801.823-.673.918-3.652 5.197-3.652 5.197l.225.121c-.19.247-.33.432-.33.432s-.254.027-.408.122c-.154.093-.56.692-.631.808-.03.047-.143.134-.27.231-.19.145-.411.314-.433.412-.036.165.778.912 1.324 1.14.215.09.32.104.413.116.143.02.257.034.697.314.727.46 3.343 1.401 3.597 1.17.253-.233.385-.381.369-.414-.01-.019-.011-.033-.013-.048a.181.181 0 00-.008-.036 2.354 2.354 0 00-.231-.138c-.43-.245-1.317-.75-1.368-.97-.03-.134-.052-.27-.072-.391-.022-.141-.041-.262-.068-.337a1.323 1.323 0 00-.094-.194c-.045-.081-.09-.165-.115-.252-.036-.128-.038-.462.012-.69l.4.216s.467-.987.826-1.56l.032-.024-.014-.004a2.58 2.58 0 01.183-.258c.29-.346 1.349-1.856 2.608-3.727.1.07.203.173.433.549.447.73 2.377 2.71 2.708 2.613.332-.099.516-.175.516-.211 0-.022.005-.036.01-.05.003-.01.007-.021.009-.035 0-.008-.07-.12-.18-.288-.344-.532-1.058-1.639-1.005-1.859.037-.154.12-.377.194-.575.064-.172.121-.326.136-.4.023-.123.226-.266.397-.388.054-.038.105-.074.146-.106.031-.026.075-.055.121-.085l.004.002c.04.023.37.21.41.182 1.83-1.277 4.073-2.22 5.063-2.602 1.361-.524 3.208-1.547 2.959-2.343-.295-.94-1.594-1.628-2.891-2.315-.227-.12-.453-.24-.674-.36-1.075-.59-2.053-1.255-2.384-1.521l.151.02c.082-.328.123-.5.123-.5l-.019-.481c.142-.601.686-1.535 1.223-2.458.576-.99 1.146-1.97 1.206-2.513.129-1.161.328-1.897.328-1.897.847.439 5.322.377 5.9.302.578-.075 4.86-.475 4.86-.475s.115-.645.207-1.364l.061-.017.016-.005.029-.008 1.751 2.367-.169 1.396.441.988 1.475.61-.953-1.237.629-1.494 1.627-.2zm-31.948 1.621l-.688 2.345-3.686-1.469 1.096-2.182.332.133a.828.828 0 00-.085.482c.11.867 1.47 1.17 1.953 1.217.275.026.56-.302.753-.655l.325.13zm13.781 9.8l-4.457 1.956a92.618 92.618 0 001.811-2.874c2.281.842 2.603.917 2.646.917zM80.495 9.213l-67.773.708h67.773v-.708zm28.211 29.587v-2.214a7.627 7.627 0 01-3.858 1.027c-1.066 0-1.969-.379-2.68-1.135-.684-.756-1.067-1.675-1.122-2.782h8.617c0-.146.01-.35.018-.514.005-.109.01-.199.01-.241 0-1.837-.52-3.27-1.532-4.322-1.012-1.053-2.243-1.567-3.721-1.567-1.668 0-3.035.595-4.103 1.782-1.039 1.163-1.559 2.594-1.559 4.295 0 1.864.575 3.403 1.723 4.619 1.149 1.215 2.599 1.809 4.323 1.809 1.285 0 2.598-.242 3.884-.757zm-1.149-6.832h-6.429c.356-1.755 1.587-2.971 3.309-2.971 1.751 0 2.982 1 3.12 2.971zm9.088 4.133l2.516 3.456h2.627l-4.65-6.238 4.212-5.672h-2.626l-2.051 2.916c-.41.595-.657 1-.739 1.19h-.164c-.247-.46-.466-.865-.711-1.216l-2.079-2.89h-2.627l4.241 5.672-4.706 6.238h2.654l2.516-3.456c.329-.487.575-.891.739-1.189h.136c.192.405.438.81.712 1.189zM12.424 13.636l60.412-.6v.6H12.424zm60.412 3.166l-60.405.584h60.405v-.584zM61 21.046l11.836-.38v.38H61z" fill="#51B2C0"/>
</svg>
