<svg width="32" height="14" fill="none" xmlns="http://www.w3.org/2000/svg">
  <path d="M5.837 13.813h-2.66V3.395L0 4.395V2.198L5.552.178h.285v13.635zM17.457 8.183c0 1.883-.384 3.323-1.15 4.32-.768.998-1.891 1.497-3.37 1.497-1.462 0-2.579-.49-3.352-1.468-.774-.98-1.17-2.382-1.188-4.209V5.817c0-1.902.387-3.345 1.16-4.33.78-.985 1.9-1.478 3.36-1.478 1.462 0 2.579.49 3.352 1.469.774.972 1.17 2.372 1.188 4.199v2.506zm-2.66-2.75c0-1.128-.154-1.948-.461-2.459-.301-.518-.774-.776-1.418-.776-.626 0-1.09.246-1.39.739-.295.486-.452 1.25-.47 2.29v3.311c0 1.11.147 1.936.442 2.479.3.536.78.804 1.436.804.651 0 1.12-.259 1.409-.776.288-.518.439-1.31.451-2.376V5.434zM19.764 2.815c0-.835.267-1.512.8-2.03C21.1.263 21.798 0 22.665 0c.877 0 1.583.259 2.117.776.535.511.802 1.207.802 2.086v.673c0 .842-.267 1.518-.801 2.03-.535.51-1.234.766-2.1.766-.871 0-1.577-.255-2.117-.767-.535-.517-.802-1.212-.802-2.085v-.664zm1.767.72c0 .374.105.677.313.907.215.225.494.337.838.337s.617-.115.82-.346c.202-.23.303-.54.303-.926v-.692c0-.374-.1-.676-.303-.907-.203-.23-.482-.346-.838-.346-.338 0-.611.115-.82.346-.208.224-.313.54-.313.944v.683zm4.64 6.94c0-.842.27-1.519.811-2.03.54-.518 1.24-.776 2.1-.776.87 0 1.574.255 2.108.767.54.505.81 1.203.81 2.094v.674c0 .835-.264 1.512-.792 2.03-.528.51-1.23.766-2.108.766-.884 0-1.593-.259-2.127-.776-.534-.518-.801-1.204-.801-2.058v-.692zm1.769.729c0 .343.11.636.331.879.221.243.497.365.829.365.749 0 1.123-.421 1.123-1.263v-.71c0-.375-.104-.674-.313-.899-.209-.23-.485-.346-.829-.346-.343 0-.62.116-.828.346-.21.225-.313.534-.313.926v.702zm-4.733 1.59l-1.298-.711L28.455 1.44l1.298.711-6.546 10.643z" fill="#2D2D32"/>
</svg>
