<svg width="128" height="93" fill="none" xmlns="http://www.w3.org/2000/svg">
  <path opacity=".8" fill-rule="evenodd" clip-rule="evenodd" d="M114.082 2.845c5.483 1.531 9.805 6.017 11.282 11.707 2.741 10.394 2.635 32.057 2.635 32.057s0 21.554-2.635 31.949c-1.477 5.69-5.799 10.175-11.282 11.707C104.065 93 64 93 64 93s-39.96 0-50.082-2.845c-5.483-1.531-9.806-6.017-11.282-11.707C0 68.164 0 46.5 0 46.5s0-21.554 2.636-31.948C4.112 8.862 8.54 4.267 13.918 2.735 23.934 0 64 0 64 0s40.065 0 50.082 2.845zM84.559 46.5L51.242 66.414V26.587L84.559 46.5z" fill="#2D2D32"/>
</svg>
