<svg width="22" height="22" fill="none" xmlns="http://www.w3.org/2000/svg">
  <path d="M21.944 6.468c-.052-1.169-.24-1.973-.511-2.669a5.368 5.368 0 00-1.273-1.951A5.416 5.416 0 0018.213.58c-.7-.27-1.5-.46-2.67-.511C14.367.013 13.993 0 11.005 0 8.017 0 7.643.013 6.47.064 5.3.116 4.496.305 3.8.576c-.74.28-1.401.709-1.952 1.272A5.416 5.416 0 00.58 3.795c-.27.7-.46 1.5-.511 2.669C.013 7.64 0 8.015 0 11.002s.013 3.36.064 4.534c.052 1.17.241 1.973.512 2.67.28.738.714 1.4 1.272 1.95.55.559 1.217.993 1.948 1.268.7.27 1.5.46 2.67.512C7.637 21.986 8.012 22 11 22c2.988 0 3.361-.013 4.535-.064 1.17-.052 1.973-.241 2.67-.512a5.628 5.628 0 003.22-3.219c.27-.7.459-1.5.51-2.669.052-1.173.065-1.547.065-4.534s-.004-3.36-.056-4.534zm-1.981 8.982c-.048 1.075-.228 1.655-.379 2.042a3.65 3.65 0 01-2.089 2.088c-.387.15-.971.331-2.042.379-1.16.051-1.508.064-4.444.064s-3.289-.013-4.445-.064c-1.075-.048-1.655-.228-2.042-.378a3.387 3.387 0 01-1.264-.822 3.42 3.42 0 01-.82-1.263c-.151-.387-.332-.971-.379-2.041-.052-1.16-.064-1.509-.064-4.444 0-2.936.012-3.288.064-4.444.047-1.074.228-1.655.378-2.041.177-.478.456-.912.826-1.264a3.416 3.416 0 011.263-.82c.387-.151.972-.332 2.042-.38 1.16-.05 1.51-.064 4.445-.064 2.94 0 3.288.013 4.445.065 1.074.047 1.655.228 2.042.378.477.176.91.456 1.263.82.365.358.645.787.821 1.265.15.386.331.97.379 2.04.051 1.161.064 1.51.064 4.445 0 2.935-.013 3.279-.064 4.44z" fill="#fff"/>
  <path d="M11.005 5.35a5.653 5.653 0 00-5.653 5.652 5.653 5.653 0 0011.305 0 5.653 5.653 0 00-5.652-5.651zm0 9.318a3.667 3.667 0 110-7.334 3.667 3.667 0 010 7.334zM18.2 5.127a1.32 1.32 0 11-2.64 0 1.32 1.32 0 012.64 0z" fill="#fff"/>
</svg>
