<svg width="74" height="74" fill="none" xmlns="http://www.w3.org/2000/svg">
  <circle cx="37" cy="37" r="32" fill="#FCCF8A"/>
  <path d="M64.5 14.5l-62 20-2 2 6 20 3 1.5 62-19 1.5-2.5-6-19-2.5-3z" fill="#fff"/>
  <path fill-rule="evenodd" clip-rule="evenodd" d="M28.322 8.99c-10.5 3.299-17.8 12.064-19.755 22.18l8.386-2.635c3.349-7.588 10.933-12.903 19.747-12.903 4.11 0 7.94 1.175 11.215 3.177l9.296-2.92C49.823 8.707 38.822 5.69 28.322 8.99zM42.85 20.4a17.8 17.8 0 00-6.15-1.11c-6.06 0-11.42 3.031-14.666 7.649l20.816-6.54zM27.225 5.5C14.74 9.422 6.278 20.204 4.667 32.394l-2.302.724C.417 33.73-.514 36.304.288 38.856L5.6 55.77c.801 2.552 3.037 4.134 4.986 3.522l3.3-1.037-.997.313c8.294 9.08 21.4 13.086 33.884 9.165C59.258 63.81 67.72 53.029 69.332 40.839l-3.9 1.223 6.202-1.948c1.95-.612 2.88-3.186 2.078-5.74L68.399 17.46c-.802-2.553-3.038-4.132-4.985-3.52l-2.305.724c-8.294-9.079-21.4-13.084-33.884-9.163zm38.208 36.561c-1.956 10.116-9.256 18.882-19.756 22.18-10.5 3.299-21.501.283-28.889-6.898l7.631-2.398a21.453 21.453 0 0012.28 3.856c9.253 0 17.141-5.864 20.204-14.06l-4.732 1.486c-3.112 5.323-8.873 8.916-15.471 8.916-2.696 0-5.246-.616-7.542-1.686l36.275-11.396zM3.095 35.445c-.875.276-1.26 1.53-.863 2.801l5.313 16.916c.4 1.27 1.436 2.078 2.31 1.803l61.049-19.178c.874-.275 1.26-1.53.862-2.8l-5.313-16.915c-.398-1.27-1.436-2.08-2.309-1.805L3.095 35.445zm60.92-13.924l3.78 12.03c.426 1.363-.228 2.78-1.462 3.167L12.996 53.472c-1.235.39-2.583-.4-3.01-1.76L6.205 39.68c-.43-1.362.227-2.779 1.46-3.168l53.339-16.754c1.235-.388 2.582.401 3.01 1.763z" fill="#2364AF"/>
  <path d="M24.126 45.495l-1.859.597-2.3-7.166-1.998 1.401-.486-1.511 3.433-2.635.2-.064 3.01 9.378zM34.292 33.625l-4.2 1.348 2.505 7.802-1.93.62-3.006-9.365 6.13-1.968.501 1.563zM43.82 34.24c.296.923.393 1.783.29 2.583-.103.799-.398 1.485-.886 2.058-.483.571-1.117.983-1.902 1.235-.776.25-1.529.285-2.257.108-.729-.178-1.371-.558-1.928-1.141-.557-.588-.983-1.33-1.276-2.23l-.149-.463c-.296-.922-.39-1.785-.285-2.59.109-.811.406-1.5.89-2.067.488-.573 1.122-.985 1.903-1.235.78-.25 1.533-.285 2.259-.101.729.177 1.37.565 1.927 1.162.559.591.986 1.346 1.28 2.264l.134.418zm-2.091.204c-.316-.982-.73-1.672-1.246-2.069s-1.1-.491-1.751-.282c-.648.208-1.066.621-1.255 1.24-.19.615-.132 1.41.176 2.384l.147.457c.307.956.72 1.641 1.242 2.056.52.415 1.111.516 1.772.304.647-.208 1.064-.62 1.248-1.238.184-.622.122-1.42-.187-2.395l-.146-.457zM55.862 37.846l-1.782.572-.74-2.303-5.647 1.813.738 2.297-1.827.586-1.338-3.813.708-.227c.28-.44.424-1 .433-1.679.012-.685-.092-1.494-.311-2.426L45.04 28.45l6.137-1.97 2.509 7.815 1.093-.352 1.083 3.903zm-7.676-1.786l3.57-1.146-2.007-6.252-2.374.762.63 2.515c.402 1.693.462 3.066.181 4.121z" fill="#fff"/>
</svg>
