<svg width="30" height="30" viewBox="0 0 30 30" fill="none" xmlns="http://www.w3.org/2000/svg">
  <path d="M30 15C30 23.2843 23.2843 30 15 30C6.71573 30 0 23.2843 0 15C0 6.71573 6.71573 0 15 0C23.2843 0 30 6.71573 30 15ZM3 15C3 21.6274 8.37258 27 15 27C21.6274 27 27 21.6274 27 15C27 8.37258 21.6274 3 15 3C8.37258 3 3 8.37258 3 15Z" fill="#D3E8ED"/>
  <path d="M28.2002 22.1242C26.6635 24.9716 24.2472 27.2457 21.3121 28.6073C18.3769 29.9688 15.0802 30.3448 11.9138 29.6791L12.531 26.7433C15.0641 27.2758 17.7015 26.9751 20.0497 25.8858C22.3978 24.7966 24.3308 22.9773 25.5602 20.6994L28.2002 22.1242Z" fill="#2364AF"/>
</svg>
