<svg width="48" height="48" fill="none" xmlns="http://www.w3.org/2000/svg">
  <path fill-rule="evenodd" clip-rule="evenodd" d="M41.714 2H6.286v3.143h35.428V2zm0 4.857H6.286V46h35.428V6.857zM4.286 6V2a2 2 0 012-2h35.428a2 2 0 012 2v44a2 2 0 01-2 2H6.286a2 2 0 01-2-2V6zm31.428 14H12.286v1.143h23.428V20zm-23.428-2a2 2 0 00-2 2v1.143a2 2 0 002 2h23.428a2 2 0 002-2V20a2 2 0 00-2-2H12.286zm0 8.857h23.428V28H12.286v-1.143zm-2 0a2 2 0 012-2h23.428a2 2 0 012 2V28a2 2 0 01-2 2H12.286a2 2 0 01-2-2v-1.143zm0-13.143c0-.473.383-.857.857-.857h17.143a.857.857 0 010 1.714H11.143a.857.857 0 01-.857-.857zm6.571 21.715h-4.571v1.142h4.571V35.43zm-4.571-2a2 2 0 00-2 2v1.142a2 2 0 002 2h4.571a2 2 0 002-2V35.43a2 2 0 00-2-2h-4.571zm20.127 5.86l-1.086-2.007-.332.169.44-1.47 1.498.485-.771.392.812 1.5 1.218 2.252c.01.016.035.088.001.195-.033.107-.096.151-.112.16l-.597.303-1.071-1.98zm-2.78 1.088a.996.996 0 01-.68.087c-.524-.12-.923-.653-.747-1.24l1.407-4.7c.157-.525.728-.815 1.263-.641l4.789 1.554c.842.273.945 1.397.165 1.794l-.937.475 1.218 2.252c.519.958.15 2.136-.825 2.63l-.872.442a2.04 2.04 0 01-2.703-.84l-.268-.496-.95-1.753-.86.436z" fill="#fff"/>
</svg>
