<svg width="20" height="20" xmlns="http://www.w3.org/2000/svg">
  <path fill-rule="evenodd" clip-rule="evenodd" d="M12.344 0a.586.586 0 00-.586.586v1.21a.586.586 0 001.172 0V.587A.586.586 0 0012.344 0zM9.029 1.755l.829.829a.586.586 0 11-.829.829l-.829-.83a.586.586 0 11.83-.828zm9.311 10.628c.28-.311.45-.722.45-1.172a1.76 1.76 0 00-1.759-1.758H13.62c.337-1.025.482-2.386.482-2.969v-.586a2.347 2.347 0 00-2.344-2.343h-.586a.586.586 0 00-.569.443l-.319 1.277c-.447 1.789-1.867 3.762-3.336 4.12a1.76 1.76 0 00-1.636-1.114H1.797a.586.586 0 00-.586.586v10.547c0 .323.262.586.586.586h3.516a1.76 1.76 0 001.586-1.002l2.013.671a6.43 6.43 0 002.039.331h4.908a1.76 1.76 0 001.635-2.405 1.761 1.761 0 001.295-1.697c0-.45-.17-.86-.449-1.171a1.752 1.752 0 000-2.344zm-12.442 5.86a.587.587 0 01-.585.585h-2.93V9.453h2.93c.323 0 .585.263.585.586v8.203zm9.961-5.274h1.172a.587.587 0 010 1.172H15.86a.586.586 0 000 1.171h1.172a.587.587 0 010 1.172H15.86a.586.586 0 000 1.172.587.587 0 010 1.172h-4.908c-.568 0-1.13-.09-1.668-.27L7.07 17.82v-7.25c.92-.175 1.82-.757 2.631-1.71.793-.93 1.436-2.164 1.72-3.3l.208-.833h.129c.646 0 1.172.525 1.172 1.171v.586c0 .787-.246 2.296-.561 2.97h-1.197a.586.586 0 000 1.171h5.86a.587.587 0 010 1.172h-1.173a.586.586 0 000 1.172zM4.141 17.656a.586.586 0 100-1.172.586.586 0 000 1.172zm11.517-15.9a.586.586 0 11.829.828l-.829.829a.586.586 0 01-.828-.83l.828-.828z"/>
</svg>
