<svg width="40" height="40" viewBox="0 0 40 40" fill="none" xmlns="http://www.w3.org/2000/svg">
  <g clip-path="url(#clip0)">
    <ellipse cx="19.9029" cy="22.7026" rx="17.2973" ry="17.2973" fill="#FCCF8A"/>
    <path d="M26.6595 10H13.6866L12.8758 11.3514L12.0649 12.1622C11.8487 12.3784 11.7947 14.2342 11.7947 15.1351L13.6866 16.4865L13.9568 18.9189L15.5785 20.8108L15.0379 24.3243L13.6866 26.4865L19.7296 28.9189L26.4864 26.7568L23.9568 24.3243L24.2271 21.6216L24.7677 20.2703L26.6595 16.7568L28.0109 14.0541L26.9298 12.4324L26.6595 10Z" fill="white"/>
    <rect x="3.78381" y="32.4326" width="32.4324" height="7.56757" fill="#FCCF8A"/>
    <path d="M37.7039 30.1244C36.7228 28.5963 34.2564 27.639 31.4012 26.5314C30.6401 26.2363 29.8531 25.9314 29.0682 25.6038C26.825 24.6687 25.6693 24.1211 25.1385 23.8547L25.1147 21.2519C25.5699 20.7503 26.3704 19.5963 26.7618 17.4055C27.8531 17.0276 28.578 15.5341 28.6304 14.6687C28.6358 14.5822 28.7455 12.5433 27.8677 11.6125C27.778 11.5168 27.6807 11.4357 27.5774 11.3693C27.5936 11.2368 27.6077 11.1157 27.6218 10.9925H28.4618V8.37844H27.7947C27.7909 8.29195 27.7855 8.21033 27.7785 8.1352C27.6342 6.65304 26.8715 5.15088 25.6304 3.97304L24.3028 4.93898L22.6709 6.12655L23.6796 4.47574L24.5218 3.0979C24.4666 3.06222 24.4082 3.03034 24.3526 2.99574C23.1704 1.79628 21.6374 0.928711 19.818 0.928711C18.0088 0.928711 16.4774 1.7833 15.298 2.97249C15.1153 3.08492 14.9385 3.20223 14.7688 3.32655L14.8488 3.4579L16.4796 6.12655L14.1309 4.41736L13.7947 4.17303C12.6763 5.31844 11.9926 6.73736 11.858 8.13628C11.8509 8.21141 11.8461 8.29249 11.8423 8.37844H10.8942V10.9914H12.0136C12.0277 11.1152 12.0418 11.2363 12.058 11.3682C11.9542 11.4352 11.8558 11.5174 11.765 11.6141C10.8845 12.5514 11.0055 14.6493 11.0066 14.6682C11.0585 15.5336 11.7834 17.0271 12.8753 17.4049C13.2661 19.5957 14.0672 20.7498 14.5223 21.2514L14.4964 23.8541C13.9655 24.1211 12.8099 24.6687 10.5661 25.6033C9.7796 25.9309 8.99095 26.2374 8.22878 26.533C5.37527 27.6406 2.91095 28.5963 1.92986 30.1249C0.882297 31.759 1.07851 38.0687 1.12824 39.3168L1.15959 40.0952H4.86284V39.2844V38.4736V36.5763H34.7731V38.4736V39.2844V40.0952H38.4753L38.5072 39.3174C38.5558 38.0692 38.7531 31.759 37.7039 30.1244ZM6.97906 34.9552V28.7714C7.56608 28.5303 8.18554 28.2893 8.81473 28.0455C9.58932 27.7449 10.3904 27.4341 11.1899 27.1011C11.7418 26.8709 12.2234 26.666 12.6547 26.4801V34.9557H6.97906V34.9552ZM14.5893 25.6125C15.3855 25.2374 15.6747 25.0676 15.7239 25.0379L16.1088 24.8033L16.1466 20.9222L16.1374 20.5276L15.8418 20.2811C15.8304 20.272 14.7423 19.3357 14.3839 16.5536L14.3218 15.6114L13.4126 15.8741C13.1645 15.812 12.6515 15.0233 12.6245 14.5698C12.5818 13.8898 12.7336 13.0644 12.898 12.7893L13.9055 12.9979L13.7563 11.8665C13.7207 11.5947 13.6823 11.2968 13.6455 10.992H15.0591L15.3304 11.5547H24.3623L24.6336 10.992H25.9893C25.9542 11.2893 25.9164 11.5855 25.8796 11.8676L25.7072 13.0006L26.7347 12.7865C26.8985 13.0595 27.052 13.8887 27.012 14.5714C26.9855 15.0103 26.5001 15.7682 26.245 15.8671L25.3736 15.6147L25.2526 16.553C24.8942 19.3347 23.8061 20.2714 23.8061 20.2714L23.4861 20.5174L23.525 24.8033L23.9104 25.0379C23.9509 25.0628 24.1526 25.1817 24.6677 25.4319C23.8677 26.0698 21.9542 27.3876 19.8163 27.3876C17.8655 27.3876 15.7239 26.2887 14.5893 25.6125ZM26.9791 34.9552V26.479C27.4104 26.6655 27.8915 26.8703 28.4445 27.1006C29.2423 27.4325 30.0412 27.7428 30.8142 28.0428C31.445 28.2876 32.0666 28.5287 32.6547 28.7703V34.9547H26.9791V34.9552Z" fill="#2364AF"/>
    <path d="M26.9791 38.4741V39.2849H32.6548V38.4741V37.5H26.9791V38.4741Z" fill="#2364AF"/>
    <path d="M6.97913 38.4741V39.2849H12.6548V38.4741V37.5H6.97913V38.4741Z" fill="#2364AF"/>
  </g>
  <defs>
    <clipPath id="clip0">
      <rect width="40" height="40" fill="white"/>
    </clipPath>
  </defs>
</svg>
