<svg width="40" height="40" viewBox="0 0 40 40" fill="none" xmlns="http://www.w3.org/2000/svg">
<g clip-path="url(#clip0)">
<ellipse cx="19.9028" cy="22.7028" rx="17.2973" ry="17.2973" fill="#FCCF8A"/>
<path d="M32.8318 35.3954V38.6667C32.8318 39.035 32.5335 39.3333 32.1652 39.3333H7.83504C7.46675 39.3333 7.16846 39.035 7.16846 38.6667V35.3954C7.16846 31.9634 9.95059 29.1829 13.3835 29.1821C14.5966 29.1813 15.6648 28.5572 16.2798 27.6106C16.8975 26.6612 16.8339 25.8357 16.8339 25.1684L16.8464 25.1376C13.8551 23.8994 11.7512 20.9523 11.7512 17.5136V17.2528C10.5634 17.2528 9.66813 16.3142 9.66813 15.2081V11.7452C9.64147 10.5395 9.69646 6.28759 12.7677 3.32715C16.3389 -0.114898 21.9982 0.166732 26.0976 2.00816C26.231 2.06815 26.2268 2.25896 26.0918 2.31478L25.0228 2.75473C24.8628 2.82055 24.897 3.05635 25.0686 3.07468L25.5877 3.13051C28.0732 3.39631 30.3821 4.74613 31.8136 6.9925C31.8519 7.05333 31.8411 7.14582 31.7919 7.19831C30.9087 8.13235 30.4154 9.37219 30.4154 10.6612V15.2081C30.4154 16.3371 29.4997 17.2528 28.3707 17.2528H28.249V17.5136C28.249 20.9523 26.1451 23.8994 23.1539 25.1376L23.1664 25.1684C23.1664 25.8164 23.0974 26.6533 23.7205 27.6106C24.3354 28.5572 25.4036 29.1813 26.6167 29.1821C30.0496 29.1829 32.8318 31.9634 32.8318 35.3954Z" fill="white"/>
<path d="M32.8317 35.3957L32.8288 39.3335C32.8288 39.7017 32.5304 40.0001 32.1622 40.0001H7.83211C7.46399 40.0001 7.16553 39.7017 7.16553 39.3335L7.16845 35.3957C7.16845 31.9636 9.951 29.1836 13.383 29.1823C14.5966 29.1819 15.665 28.557 16.2797 27.6108C18.4256 29.4441 21.5733 29.4452 23.7204 27.6108C24.3351 28.557 25.4036 29.1819 26.6171 29.1823C30.0492 29.1836 32.8317 31.9636 32.8317 35.3957Z" fill="#FCCF8A"/>
<path fill-rule="evenodd" clip-rule="evenodd" d="M23.8967 26.3938L24.4004 27.1691C24.8712 27.8938 25.6885 28.3711 26.6175 28.3715C30.4966 28.3729 33.6426 31.5153 33.6426 35.3956L33.6397 40.4146V40.4152C33.6393 41.2308 32.978 41.892 32.1623 41.892H7.83213C7.01621 41.892 6.35474 41.2305 6.35474 40.4146L6.35766 35.3956L6.35766 35.395C6.35798 31.515 9.50384 28.3729 13.3828 28.3715C14.3117 28.3711 15.129 27.8939 15.5999 27.1691L16.1035 26.3938L16.8064 26.9943C18.6491 28.5686 21.3501 28.5695 23.1938 26.9943L23.8967 26.3938ZM16.4172 28.7262C15.6447 29.508 14.57 29.9927 13.3833 29.9931C10.3984 29.9942 7.97928 32.4119 7.97928 35.3956L7.97647 40.2704H32.0181L32.021 35.3956V35.395C32.0206 32.4115 29.6016 29.9942 26.6169 29.9931C25.4303 29.9927 24.3556 29.508 23.583 28.7262C21.4089 30.1543 18.5904 30.1535 16.4172 28.7262ZM32.018 40.4146V40.414V40.4146Z" fill="#2364AF"/>
<path d="M17.2974 31.8919C17.2974 31.4595 19.1893 29.1892 19.1893 29.1892H20.5406C20.5406 29.1892 22.1622 31.4595 22.1622 31.8919C22.1622 32.3243 21.4415 37.4775 21.0811 40H18.919C18.3784 37.4775 17.2974 32.3243 17.2974 31.8919Z" fill="#2364AF"/>
<path fill-rule="evenodd" clip-rule="evenodd" d="M24.0542 37.8379C24.0542 37.3901 24.4172 37.0271 24.865 37.0271L28.1083 37.0271C28.5561 37.0271 28.9191 37.3901 28.9191 37.8379C28.9191 38.2857 28.5561 38.6487 28.1083 38.6487L24.865 38.6487C24.4172 38.6487 24.0542 38.2857 24.0542 37.8379Z" fill="#2364AF"/>
<path d="M31.813 6.99287C31.8517 7.05361 31.8409 7.1456 31.7915 7.19793C30.9085 8.13264 30.4152 9.37206 30.4152 10.6611V15.208C30.4152 16.2402 29.6376 17.2528 28.2488 17.2528V12.1059C28.2488 9.89707 26.4582 8.10647 24.2494 8.10647H15.7505C13.5416 8.10647 11.751 9.89707 11.751 12.1059V17.2528C10.5632 17.2528 9.66795 16.3141 9.66795 15.208V11.7452C9.64128 10.5395 9.69628 6.28755 12.7675 3.3271C16.3386 -0.115029 21.9983 0.166767 26.0972 2.00836C26.2306 2.06827 26.227 2.25916 26.0918 2.31482L25.0227 2.75493C24.8629 2.82075 24.8965 3.0563 25.0683 3.07472L25.5876 3.13046C28.0735 3.39601 30.3817 4.74583 31.813 6.99287Z" fill="#2364AF"/>
<path fill-rule="evenodd" clip-rule="evenodd" d="M32.2691 6.70268C32.4474 6.98277 32.3952 7.34595 32.1845 7.56909C31.3964 8.40341 30.9558 9.51008 30.9558 10.6612V15.2081C30.9558 16.5194 29.9552 17.7934 28.2489 17.7934H27.7084V12.106C27.7084 10.1957 26.1598 8.64707 24.2494 8.64707H15.7505C13.8402 8.64707 12.2916 10.1957 12.2916 12.106V17.7934H11.7511C10.2639 17.7934 9.12747 16.6119 9.12747 15.2081V11.7511C9.10072 10.5203 9.14888 6.06454 12.3925 2.93798C16.1897 -0.722178 22.1198 -0.371177 26.3187 1.51531C26.8265 1.74335 26.8653 2.40992 26.4648 2.71872C28.7911 3.1853 30.9053 4.56155 32.2691 6.70268ZM26.0919 2.31487C26.2271 2.25921 26.2307 2.06832 26.0973 2.00841C26.0439 1.98444 25.9903 1.96074 25.9365 1.93731C25.9364 1.9373 25.9365 1.93731 25.9365 1.93731C25.8872 1.91588 25.8377 1.89465 25.788 1.87367C25.7807 1.87059 25.7734 1.86751 25.7661 1.86444C21.698 0.154436 16.2434 -0.0231774 12.7676 3.32715C9.69634 6.2876 9.64135 10.5395 9.66801 11.7452V15.2081C9.66801 16.1388 10.3019 16.951 11.2105 17.1851C11.3818 17.2292 11.5627 17.2528 11.7511 17.2528V12.106C11.7511 9.89712 13.5417 8.10653 15.7505 8.10653H24.2494C26.4583 8.10653 28.2489 9.89712 28.2489 12.106V17.2528C28.4409 17.2528 28.6212 17.2335 28.7894 17.1974C29.8378 16.9725 30.4153 16.0976 30.4153 15.2081V10.6612C30.4153 9.37211 30.9086 8.13269 31.7915 7.19798C31.8409 7.14565 31.8518 7.05366 31.8131 6.99292C30.3818 4.74588 28.0735 3.39606 25.5877 3.13051L25.1584 3.08444L25.0684 3.07477C24.8966 3.05636 24.8629 2.8208 25.0227 2.75498L25.1064 2.72056L26.0919 2.31487ZM25.8861 1.81503C25.886 1.81508 25.8862 1.81497 25.8861 1.81503V1.81503Z" fill="#2364AF"/>
<path fill-rule="evenodd" clip-rule="evenodd" d="M17.5654 4.60207C20.338 4.53274 23.5124 4.94711 25.9105 5.49749C27.9396 5.9632 29.2299 6.94543 29.9217 8.25401C30.5951 9.52792 30.6326 10.9835 30.439 12.2857C30.2442 13.5963 29.8022 14.8416 29.4153 15.7663C29.2205 16.2319 29.0367 16.6231 28.9009 16.9063C28.8713 16.968 28.8453 17.022 28.8221 17.0701L28.8217 17.0708C28.7899 17.1368 28.7635 17.1915 28.7408 17.2395C28.7339 17.2541 28.728 17.2666 28.7231 17.2774L28.716 17.2927C28.2889 19.213 27.6967 20.7454 27.062 21.8879C26.4353 23.016 25.7212 23.8458 25.0134 24.2321C24.4772 24.5248 24.0611 24.7778 23.713 24.9966C23.7114 25.0115 23.7097 25.0269 23.7081 25.0427C23.6872 25.2464 23.6752 25.5102 23.702 25.7753C23.7602 26.3504 23.9509 26.6308 24.2601 26.7224C24.6895 26.8495 24.9345 27.3006 24.8074 27.73C24.6802 28.1594 24.2291 28.4044 23.7997 28.2773C22.5116 27.8959 22.1667 26.7108 22.0886 25.9384L22.0872 25.9237C21.5667 26.128 21.0125 26.2161 20.2081 26.2161C19.156 26.2161 18.427 26.067 17.6337 25.7228C17.6299 25.7934 17.6245 25.8655 17.6171 25.9384C17.539 26.7108 17.1941 27.8959 15.906 28.2773C15.4766 28.4044 15.0255 28.1594 14.8984 27.73C14.7712 27.3006 15.0163 26.8495 15.4456 26.7224C15.7549 26.6308 15.9456 26.3504 16.0037 25.7753C16.0305 25.5102 16.0185 25.2464 15.9977 25.0427C15.9901 24.9685 15.9815 24.9047 15.974 24.8546C15.9601 24.8468 15.9462 24.839 15.9323 24.8312C15.6048 24.6475 15.2479 24.4473 14.853 24.2333C13.3038 23.3938 12.6046 21.6835 12.1581 20.3437C12.0457 20.0063 11.9542 19.7087 11.8697 19.4336C11.7663 19.0972 11.6733 18.7946 11.565 18.4943C11.4744 18.2428 11.3915 18.0501 11.3122 17.9082C11.2734 17.8388 11.2401 17.79 11.2135 17.7569C11.2005 17.7407 11.1902 17.7296 11.1829 17.7224C11.1756 17.7152 11.1718 17.7125 11.1719 17.7126C10.5433 17.2527 10.1507 16.5177 9.90877 15.8998C9.65862 15.2608 9.51961 14.6163 9.46617 14.1994L9.45605 14.1204L9.46148 14.041C9.55566 12.663 10.0244 9.29825 11.2052 6.99488C11.6968 6.03574 12.6904 5.47201 13.7629 5.13545C14.8558 4.79248 16.1817 4.63667 17.5654 4.60207ZM28.6997 17.3303C28.6995 17.3306 28.7007 17.3276 28.7035 17.3208C28.7013 17.3267 28.6999 17.3301 28.6997 17.3303ZM14.2485 6.68267C13.3368 6.96876 12.8467 7.34744 12.6482 7.7346C11.6414 9.69872 11.1877 12.7116 11.0853 14.0693C11.1313 14.3762 11.2383 14.8476 11.4188 15.3086C11.6231 15.8305 11.8747 16.2175 12.1294 16.4038C12.3993 16.6013 12.5889 16.8685 12.7277 17.1169C12.8694 17.3705 12.9871 17.6574 13.0906 17.9444C13.2019 18.2533 13.3215 18.6391 13.4411 19.0253L13.4411 19.0253L13.4411 19.0253L13.4411 19.0253C13.5273 19.3033 13.6134 19.5814 13.6966 19.8311C14.1473 21.1838 14.6903 22.3008 15.6256 22.8076C16.0985 23.0638 16.4889 23.2832 16.8255 23.4723C17.4169 23.8045 17.8421 24.0434 18.2566 24.2253C18.8323 24.478 19.3406 24.5945 20.2081 24.5945C21.067 24.5945 21.416 24.4811 21.8289 24.2555C22.0252 24.1482 22.2289 24.0184 22.504 23.8432C22.5754 23.7977 22.6516 23.7491 22.7338 23.6971C23.1206 23.4521 23.5998 23.1563 24.2364 22.8088C24.5489 22.6382 25.077 22.1216 25.6445 21.1003C26.1973 20.1052 26.7455 18.7052 27.1456 16.8842C27.1661 16.7907 27.2023 16.7069 27.2131 16.6819L27.2145 16.6787C27.2322 16.6373 27.2535 16.5914 27.2746 16.5468C27.2993 16.4944 27.3311 16.4285 27.3662 16.3558C27.3893 16.3079 27.4139 16.257 27.4387 16.2051C27.569 15.9334 27.7397 15.5699 27.9194 15.1404C28.2814 14.2751 28.6682 13.1697 28.835 12.0474C29.0031 10.9167 28.9348 9.85704 28.488 9.01189C28.0596 8.2014 27.2151 7.4607 25.5477 7.07802C23.253 6.55136 20.2163 6.15791 17.6059 6.22318C16.2982 6.25588 15.1397 6.40297 14.2485 6.68267Z" fill="#2364AF"/>
</g>
<defs>
<clipPath id="clip0">
<rect width="40" height="40" fill="white"/>
</clipPath>
</defs>
</svg>
